<?xml version="1.0" encoding="UTF-8" standalone="no"?>
<!-- Created with Inkscape (http://www.inkscape.org/) -->

<svg
   width="290.37265"
   height="291.20871"
   viewBox="0 0 290.37265 291.20871"
   version="1.1"
   id="svg5"
   inkscape:version="1.2.2 (b0a8486541, 2022-12-01)"
   sodipodi:docname="bg.svg"
   xmlns:inkscape="http://www.inkscape.org/namespaces/inkscape"
   xmlns:sodipodi="http://sodipodi.sourceforge.net/DTD/sodipodi-0.dtd"
   xmlns="http://www.w3.org/2000/svg"
   xmlns:svg="http://www.w3.org/2000/svg">
  <sodipodi:namedview
     id="namedview7"
     pagecolor="#000000"
     bordercolor="#000000"
     borderopacity="0.25"
     inkscape:showpageshadow="2"
     inkscape:pageopacity="0"
     inkscape:pagecheckerboard="0"
     inkscape:deskcolor="#d1d1d1"
     inkscape:document-units="px"
     showgrid="false"
     inkscape:zoom="1.0973349"
     inkscape:cx="70.625659"
     inkscape:cy="1.8225977"
     inkscape:window-width="1920"
     inkscape:window-height="1061"
     inkscape:window-x="0"
     inkscape:window-y="19"
     inkscape:window-maximized="1"
     inkscape:current-layer="layer1" />
  <defs
     id="defs2" />
  <g
     inkscape:label="Layer 1"
     inkscape:groupmode="layer"
     id="layer1"
     transform="translate(-14.730693,-7.7630628)">
    <path
       id="path287"
       style="fill:none;fill-opacity:1;fill-rule:evenodd;stroke:#ffffff;stroke-width:9.05388;stroke-linecap:round;stroke-dasharray:none;stroke-opacity:1"
       d="m 152.11516,150.03456 c 1.39981,2.42453 -2.5776,3.08308 -4.02973,2.32657 -3.93517,-2.05013 -3.17177,-7.58965 -0.6234,-10.38603 4.55843,-5.00207 12.53769,-3.59312 16.74233,1.07975 6.17048,6.85763 4.04637,17.55988 -2.78292,23.09864 -9.10238,7.38229 -22.6093,4.51439 -29.45493,-4.48609 -8.61454,-11.32619 -4.9903,-27.67192 6.18925,-35.81123 13.53993,-9.8578 32.74203,-5.4708 42.16753,7.89241 11.10762,15.74809 5.9542,37.81683 -9.59558,48.52383 -17.95283,12.36167 -42.89473,6.43954 -54.88013,-11.29874 -13.61858,-20.15535 -6.92621,-47.97482 13.0019,-61.23643 22.35634,-14.87752 53.05652,-7.41387 67.59274,14.70507 16.13796,24.55622 7.90226,58.1394 -16.40823,73.94903" />
    <path
       id="path1076"
       style="fill:none;fill-opacity:1;fill-rule:evenodd;stroke:#ffffff;stroke-width:4.07868;stroke-linecap:round;stroke-dasharray:none;stroke-opacity:1"
       d="m 263.81007,48.607223 c 0.6306,1.09223 -1.16118,1.38889 -1.81535,1.0481 -1.77275,-0.92357 -1.42885,-3.41906 -0.28083,-4.6788 2.05352,-2.253385 5.6481,-1.618667 7.54224,0.48641 2.77974,3.08929 1.82285,7.91055 -1.25367,10.4057 -4.10053,3.32565 -10.18526,2.03369 -13.26915,-2.02094 -3.88076,-5.10233 -2.24807,-12.46591 2.7882,-16.132585 6.0996,-4.440837 14.74994,-2.464539 18.99603,3.555449 5.00387,7.094356 2.68231,17.036086 -4.32271,21.859486 -8.08756,5.5688 -19.32363,2.90095 -24.72293,-5.08997 -6.13503,-9.07977 -3.12018,-21.612158 5.85722,-27.586376 10.0713,-6.702169 23.90142,-3.339872 30.44983,6.624482 7.26999,11.062324 3.55989,26.191204 -7.39173,33.313274" />
    <path
       id="path1078"
       style="fill:none;fill-opacity:1;fill-rule:evenodd;stroke:#ffffff;stroke-width:4.07868;stroke-linecap:round;stroke-dasharray:none;stroke-opacity:1"
       d="m 54.25756,257.51625 c 0.6306,1.09223 -1.16118,1.38889 -1.81535,1.0481 -1.77275,-0.92357 -1.42885,-3.41906 -0.28083,-4.6788 2.05352,-2.25338 5.6481,-1.61867 7.54224,0.48641 2.77974,3.08929 1.82285,7.91055 -1.25367,10.4057 -4.10053,3.32565 -10.18526,2.03369 -13.26915,-2.02094 -3.88076,-5.10233 -2.24807,-12.46591 2.7882,-16.13258 6.0996,-4.44084 14.74994,-2.46454 18.99603,3.55544 5.00387,7.09436 2.68231,17.03609 -4.32271,21.85949 -8.08756,5.5688 -19.32363,2.90095 -24.72293,-5.08997 -6.13503,-9.07977 -3.12018,-21.61216 5.85722,-27.58638 10.0713,-6.70216 23.90142,-3.33987 30.44983,6.62449 7.26999,11.06232 3.55989,26.1912 -7.39173,33.31327" />
  </g>
</svg>
