<?xml version="1.0" encoding="UTF-8" standalone="no"?>
<!-- Created with Inkscape (http://www.inkscape.org/) -->

<svg
   width="151.52524"
   height="125.34223"
   viewBox="0 0 151.52524 125.34223"
   version="1.1"
   id="svg5"
   inkscape:version="1.2.2 (b0a8486541, 2022-12-01)"
   sodipodi:docname="icon.svg"
   xmlns:inkscape="http://www.inkscape.org/namespaces/inkscape"
   xmlns:sodipodi="http://sodipodi.sourceforge.net/DTD/sodipodi-0.dtd"
   xmlns="http://www.w3.org/2000/svg"
   xmlns:svg="http://www.w3.org/2000/svg">
  <sodipodi:namedview
     id="namedview7"
     pagecolor="#000000"
     bordercolor="#000000"
     borderopacity="0.25"
     inkscape:showpageshadow="2"
     inkscape:pageopacity="0"
     inkscape:pagecheckerboard="0"
     inkscape:deskcolor="#d1d1d1"
     inkscape:document-units="px"
     showgrid="false"
     inkscape:zoom="3.1037318"
     inkscape:cx="117.43927"
     inkscape:cy="85.381089"
     inkscape:window-width="1920"
     inkscape:window-height="1061"
     inkscape:window-x="0"
     inkscape:window-y="19"
     inkscape:window-maximized="1"
     inkscape:current-layer="layer1" />
  <defs
     id="defs2" />
  <g
     inkscape:label="Layer 1"
     inkscape:groupmode="layer"
     id="layer1"
     transform="translate(25.762524,-3.0385871)">
    <g
       aria-label="NeoZnome"
       id="text478"
       style="font-weight:bold;font-size:100px;font-family:monospace;-inkscape-font-specification:'monospace Bold';fill:#ffffff;stroke-width:2;stroke-linecap:round;stroke-linejoin:round"
       transform="matrix(0.25562184,0,0,0.25562184,-21.585897,92.349871)">
      <path
         d="M 47.183979,81.296494 V 9.8964935 h 19.7 l 18.8,57.5000005 h 0.3 q -0.4,-7 -0.6,-12.9 -0.1,-5.9 -0.1,-8.8 V 9.8964935 h 12.9 V 81.296494 h -19.9 l -18.8,-58 h -0.4 q 0.5,7.1 0.7,13.3 0.3,6.1 0.3,9.1 v 35.6 z"
         id="path1498" />
      <path
         d="m 137.78402,82.296494 q -14.4,0 -22.3,-7.4 -7.8,-7.4 -7.8,-21.2 0,-8.5 3,-14.8 3,-6.3 8.8,-9.7 5.8,-3.5 14,-3.5 11.6,0 17.9,6.7 6.3,6.7 6.3,18.6 v 7.2 h -35.9 q 0.2,4 2.4,6.8 2.3,2.7 6.1,4.1 3.8,1.3 8.3,1.3 3.9,0 8.2,-0.9 4.4,-1 9.3,-2.8 v 11.7 q -4.4,2.2 -9.1,3 -4.6,0.9 -9.2,0.9 z m 6.9,-34 q -0.1,-5.3 -3.2,-8.4 -3,-3.1 -7.7,-3.1 -4.6,0 -7.9,3 -3.3,2.9 -3.8,8.5 z"
         id="path1500" />
      <path
         d="m 192.68406,82.296494 q -8.2,0 -14,-3.5 -5.8,-3.5 -8.9,-9.8 -3.1,-6.3 -3.1,-14.8 0,-8.7 3.1,-15.1 3.2,-6.4 9.1,-9.9 5.9,-3.5 14,-3.5 11.9,0 18.8,7.5 7,7.4 7,20.8 0,8.4 -3,14.8 -3,6.4 -8.8,10 -5.7,3.5 -14.2,3.5 z m 0.2,-11.7 q 5.7,0 8.4,-4.4 2.7,-4.5 2.7,-12.2 0,-7.5 -2.6,-12 -2.6,-4.6 -8.5,-4.6 -5.8,0 -8.7,4.5 -2.8,4.4 -2.8,12.1 0,7.6 2.8,12.1 2.9,4.5 8.7,4.5 z"
         id="path1502" />
      <path
         d="m 230.6841,81.296494 v -9.8 l 28.6,-49.3 h -26.1 V 9.8964935 h 42.3 v 9.8000005 l -28.9,49.1 h 29.1 v 12.5 z"
         id="path1504" />
      <path
         d="m 288.18413,81.296494 v -54.6 h 11 l 2.4,7 h 0.8 q 5,-8 16.5,-8 9.2,0 14,5.2 4.8,5.1 4.8,14.8 v 35.6 h -14.5 v -31.9 q 0,-6 -2.4,-8.8 -2.4,-2.9 -6.9,-2.9 -5.9,0 -8.6,4.8 -2.6,4.8 -2.6,13.1 v 25.7 z"
         id="path1506" />
      <path
         d="m 372.68416,82.296494 q -8.2,0 -14,-3.5 -5.8,-3.5 -8.9,-9.8 -3.1,-6.3 -3.1,-14.8 0,-8.7 3.1,-15.1 3.2,-6.4 9.1,-9.9 5.9,-3.5 14,-3.5 11.9,0 18.8,7.5 7,7.4 7,20.8 0,8.4 -3,14.8 -3,6.4 -8.8,10 -5.7,3.5 -14.2,3.5 z m 0.2,-11.7 q 5.7,0 8.4,-4.4 2.7,-4.5 2.7,-12.2 0,-7.5 -2.6,-12 -2.6,-4.6 -8.5,-4.6 -5.8,0 -8.7,4.5 -2.8,4.4 -2.8,12.1 0,7.6 2.8,12.1 2.9,4.5 8.7,4.5 z"
         id="path1508" />
      <path
         d="m 405.68422,81.296494 v -54.6 h 9.8 l 1.6,6.8 h 0.8 q 1.5,-4.1 3.8,-5.9 2.4,-1.9 6.3,-1.9 4.4,0 6.7,2.3 2.3,2.3 3.1,6.7 h 0.5 q 1.8,-4.4 4.3,-6.7 2.5,-2.3 6.8,-2.3 6.5,0 8.4,5.1 1.9,5.1 1.9,15 v 35.5 h -12.5 v -38.4 q 0,-2.5 -0.7,-3.8 -0.7,-1.4 -2.9,-1.4 -2.5,0 -3.5,1.9 -1,1.9 -1,6.4 v 35.3 h -12.7 v -38.4 q 0,-2.6 -0.8,-3.9 -0.7,-1.3 -2.9,-1.3 -2.5,0 -3.5,1.8 -1,1.8 -1,6.5 v 35.3 z"
         id="path1510" />
      <path
         d="m 497.78425,82.296494 q -14.4,0 -22.3,-7.4 -7.8,-7.4 -7.8,-21.2 0,-8.5 3,-14.8 3,-6.3 8.8,-9.7 5.8,-3.5 14,-3.5 11.6,0 17.9,6.7 6.3,6.7 6.3,18.6 v 7.2 h -35.9 q 0.2,4 2.4,6.8 2.3,2.7 6.1,4.1 3.8,1.3 8.3,1.3 3.9,0 8.2,-0.9 4.4,-1 9.3,-2.8 v 11.7 q -4.4,2.2 -9.1,3 -4.6,0.9 -9.2,0.9 z m 6.9,-34 q -0.1,-5.3 -3.2,-8.4 -3,-3.1 -7.7,-3.1 -4.6,0 -7.9,3 -3.3,2.9 -3.8,8.5 z"
         id="path1512" />
    </g>
    <path
       sodipodi:type="spiral"
       style="fill:none;fill-rule:evenodd;stroke:#ffffff;stroke-width:10;stroke-linecap:round;stroke-linejoin:round;stroke-dasharray:none;stroke-opacity:1"
       id="path1581"
       sodipodi:cx="56.567913"
       sodipodi:cy="25.100929"
       sodipodi:expansion="1"
       sodipodi:revolution="3"
       sodipodi:radius="65.923668"
       sodipodi:argument="-18.037823"
       sodipodi:t0="0"
       d="m 56.567913,25.100929 c 2.274852,2.397939 -2.110041,4.249513 -3.985531,3.780954 -5.082462,-1.269768 -5.731817,-7.839714 -3.576376,-11.752017 3.855579,-6.99819 13.404274,-7.5784011 19.518501,-3.371797 8.972874,6.173361 9.482051,19.045166 3.16722,27.284986 C 63.27505,52.025439 46.978463,52.453209 36.640256,44.005696 23.630678,33.375364 23.28932,13.611341 33.882192,1.1877409 46.71158,-13.858903 69.964965,-14.111323 84.466633,-1.3657448 101.55635,13.654478 101.71844,40.410011 86.815541,56.98518 69.609555,76.12187 39.343753,76.192805 20.698131,59.12951 -0.48821079,39.74111 -0.46746511,5.9595503 18.758379,-14.754385 c 21.568491,-23.237904 58.869694,-23.125129 81.650381,-1.735174 25.29088,23.7469049 25.08583,64.570604 1.53059,89.416865"
       transform="matrix(0.67275831,0,0,0.67275831,21.777006,35.9227)" />
    <path
       sodipodi:type="spiral"
       style="fill:none;fill-rule:evenodd;stroke:#ffffff;stroke-width:10;stroke-linecap:round;stroke-linejoin:round;stroke-dasharray:none;stroke-opacity:1"
       id="path1583"
       sodipodi:cx="56.567913"
       sodipodi:cy="25.100929"
       sodipodi:expansion="1"
       sodipodi:revolution="3"
       sodipodi:radius="65.923668"
       sodipodi:argument="-18.037823"
       sodipodi:t0="0"
       d="m 56.567913,25.100929 c 2.274852,2.397939 -2.110041,4.249513 -3.985531,3.780954 -5.082462,-1.269768 -5.731817,-7.839714 -3.576376,-11.752017 3.855579,-6.99819 13.404274,-7.5784011 19.518501,-3.371797 8.972874,6.173361 9.482051,19.045166 3.16722,27.284986 C 63.27505,52.025439 46.978463,52.453209 36.640256,44.005696 23.630678,33.375364 23.28932,13.611341 33.882192,1.1877409 46.71158,-13.858903 69.964965,-14.111323 84.466633,-1.3657448 101.55635,13.654478 101.71844,40.410011 86.815541,56.98518 69.609555,76.12187 39.343753,76.192805 20.698131,59.12951 -0.48821079,39.74111 -0.46746511,5.9595503 18.758379,-14.754385 c 21.568491,-23.237904 58.869694,-23.125129 81.650381,-1.735174 25.29088,23.7469049 25.08583,64.570604 1.53059,89.416865"
       transform="matrix(-0.23638864,0,0,0.23638864,20.189252,71.30844)" />
  </g>
</svg>
