<?xml version="1.0" encoding="UTF-8" standalone="no"?>
<!-- Created with Inkscape (http://www.inkscape.org/) -->

<svg
   width="290.37265"
   height="291.20871"
   viewBox="0 0 290.37265 291.20871"
   version="1.1"
   id="svg5"
   inkscape:version="1.2.2 (b0a8486541, 2022-12-01)"
   sodipodi:docname="sand.svg"
   xmlns:inkscape="http://www.inkscape.org/namespaces/inkscape"
   xmlns:sodipodi="http://sodipodi.sourceforge.net/DTD/sodipodi-0.dtd"
   xmlns="http://www.w3.org/2000/svg"
   xmlns:svg="http://www.w3.org/2000/svg">
  <sodipodi:namedview
     id="namedview7"
     pagecolor="#000000"
     bordercolor="#000000"
     borderopacity="0.25"
     inkscape:showpageshadow="2"
     inkscape:pageopacity="0"
     inkscape:pagecheckerboard="0"
     inkscape:deskcolor="#d1d1d1"
     inkscape:document-units="px"
     showgrid="false"
     inkscape:zoom="1.5518659"
     inkscape:cx="33.830243"
     inkscape:cy="257.10984"
     inkscape:window-width="1920"
     inkscape:window-height="1061"
     inkscape:window-x="0"
     inkscape:window-y="19"
     inkscape:window-maximized="1"
     inkscape:current-layer="layer1" />
  <defs
     id="defs2" />
  <g
     inkscape:label="Layer 1"
     inkscape:groupmode="layer"
     id="layer1"
     transform="translate(-14.730693,-7.7630628)">
    <rect
       style="opacity:1;fill:#e6d8ad;fill-opacity:1;stroke:none;stroke-width:25;stroke-linecap:round;stroke-linejoin:round;stroke-dasharray:none;stroke-opacity:1"
       id="rect1162"
       width="362.33945"
       height="344.08701"
       x="-31.636299"
       y="-8.8035345"
       ry="8.1084499" />
    <path
       id="rect1216"
       style="opacity:1;fill:#d1b58e;stroke-width:27.8112;stroke-linecap:round;stroke-linejoin:round;fill-opacity:1"
       d="m 81.742971,190.09928 c 21.576449,-5.27963 49.731149,-3.77548 71.445139,1.34827 5.27974,1.24583 10.75066,3.6313 11.94578,6.59011 2.14558,5.3119 -2.21673,12.03765 -10.47034,15.34192 -15.24667,6.1039 -39.25288,5.60854 -57.464304,2.40796 -8.937733,-1.57077 -16.311772,-5.59993 -21.086706,-9.84408 -3.092296,-2.74856 -5.336632,-6.21816 -4.012897,-9.32966 1.139622,-2.67875 4.88259,-5.3496 9.643328,-6.51452 z"
       sodipodi:nodetypes="aaaaaaaa" />
    <path
       id="path1476"
       style="opacity:1;fill:#d1b58e;stroke-width:33.8285;stroke-linecap:round;stroke-linejoin:round;fill-opacity:1"
       d="m 61.393383,106.23197 c 21.57645,-7.811434 49.731147,-5.58598 71.445137,1.99482 5.27974,1.84325 10.75066,5.37266 11.94578,9.75034 2.14558,7.85916 -2.21673,17.81019 -10.47034,22.69899 -15.24667,9.03097 -39.252877,8.29807 -57.464297,3.56268 -8.93774,-2.32402 -16.31178,-8.28533 -21.08671,-14.56472 -3.0923,-4.06661 -5.33663,-9.20002 -4.0129,-13.80361 1.13962,-3.96333 4.88259,-7.91496 9.64333,-9.6385 z"
       sodipodi:nodetypes="aaaaaaaa" />
    <path
       id="path1478"
       style="opacity:1;fill:#d1b58e;stroke-width:11.5746;stroke-linecap:round;stroke-linejoin:round;fill-opacity:1"
       d="m 53.35235,169.07633 c 6.830163,-2.88885 15.742715,-2.06582 22.616417,0.73773 1.671336,0.68168 3.403192,1.98693 3.781514,3.6059 0.679195,2.9065 -0.701723,6.58662 -3.314454,8.39461 -4.826431,3.33986 -12.425752,3.06881 -18.190693,1.31756 -2.829298,-0.85948 -5.163597,-3.0641 -6.675133,-5.38637 -0.978886,-1.50392 -1.689345,-3.40238 -1.270308,-5.10489 0.360754,-1.46573 1.545615,-2.92713 3.052657,-3.56454 z"
       sodipodi:nodetypes="aaaaaaaa" />
    <path
       id="path1482"
       style="opacity:1;fill:#d1b58e;stroke-width:16.5177;stroke-linecap:round;stroke-linejoin:round;fill-opacity:1"
       d="m 167.41774,141.15451 c 7.61092,-5.27963 17.54228,-3.77548 25.20172,1.34827 1.86238,1.24583 3.79221,3.6313 4.21378,6.59011 0.75683,5.3119 -0.78194,12.03765 -3.69333,15.34192 -5.37815,6.1039 -13.84615,5.60854 -20.27009,2.40796 -3.15272,-1.57077 -5.75385,-5.59993 -7.43817,-9.84408 -1.09079,-2.74856 -1.88246,-6.21816 -1.41552,-9.32966 0.40199,-2.67875 1.72229,-5.3496 3.40161,-6.51452 z"
       sodipodi:nodetypes="aaaaaaaa" />
    <path
       id="path1484"
       style="opacity:1;fill:#d1b58e;stroke-width:13.7322;stroke-linecap:round;stroke-linejoin:round;fill-opacity:1"
       d="m 147.83095,84.806147 c 10.65372,-2.60691 24.55555,-1.86421 35.27717,0.66573 2.60696,0.61514 5.30831,1.79301 5.89842,3.25397 1.05942,2.62283 -1.09454,5.94378 -5.16989,7.57531 -7.52829,3.0139 -19.38174,2.76931 -28.37392,1.18897 -4.41314,-0.77559 -8.05419,-2.76505 -10.41189,-4.86067 -1.52687,-1.35714 -2.63505,-3.07031 -1.98143,-4.60667 0.5627,-1.32267 2.41085,-2.64145 4.76154,-3.21664 z"
       sodipodi:nodetypes="aaaaaaaa" />
    <path
       id="path1486"
       style="opacity:1;fill:#d1b58e;stroke-width:33.8285;stroke-linecap:round;stroke-linejoin:round;fill-opacity:1"
       d="m 210.00276,41.444701 c 21.57645,-7.811434 49.73115,-5.58598 71.44514,1.99482 5.27974,1.84325 10.75066,5.37266 11.94578,9.75034 2.14558,7.85916 -2.21673,17.81019 -10.47034,22.69899 -15.24667,9.03097 -39.25288,8.29807 -57.4643,3.56268 -8.93774,-2.32402 -16.31178,-8.28533 -21.08671,-14.56472 -3.0923,-4.06661 -5.33663,-9.20002 -4.0129,-13.80361 1.13962,-3.96333 4.88259,-7.91496 9.64333,-9.6385 z"
       sodipodi:nodetypes="aaaaaaaa" />
    <path
       id="path1490"
       style="opacity:1;fill:#d1b58e;stroke-width:16.5177;stroke-linecap:round;stroke-linejoin:round;fill-opacity:1"
       d="m 48.14812,30.70182 c 7.61092,-5.27963 17.54228,-3.77548 25.20172,1.34827 1.86238,1.24583 3.79221,3.6313 4.21378,6.59011 0.75683,5.3119 -0.78194,12.03765 -3.69333,15.34192 -5.37815,6.1039 -13.84615,5.60854 -20.27009,2.40796 -3.15272,-1.57077 -5.75385,-5.59993 -7.43817,-9.84408 -1.09079,-2.74856 -1.88246,-6.21816 -1.41552,-9.32966 0.40199,-2.67875 1.72229,-5.3496 3.40161,-6.51452 z"
       sodipodi:nodetypes="aaaaaaaa" />
    <path
       id="path1492"
       style="opacity:1;fill:#d1b58e;stroke-width:11.5746;stroke-linecap:round;stroke-linejoin:round;fill-opacity:1"
       d="m 250.28074,255.94994 c 6.83016,-2.88885 15.74271,-2.06582 22.61641,0.73773 1.67134,0.68168 3.4032,1.98693 3.78152,3.6059 0.67919,2.9065 -0.70172,6.58662 -3.31446,8.39461 -4.82643,3.33986 -12.42575,3.06881 -18.19069,1.31756 -2.8293,-0.85948 -5.1636,-3.0641 -6.67513,-5.38637 -0.97889,-1.50392 -1.68935,-3.40238 -1.27031,-5.10489 0.36075,-1.46573 1.54562,-2.92713 3.05266,-3.56454 z"
       sodipodi:nodetypes="aaaaaaaa" />
    <path
       id="path1494"
       style="opacity:1;fill:#d1b58e;stroke-width:33.8285;stroke-linecap:round;stroke-linejoin:round;fill-opacity:1"
       d="m 66.414781,246.35633 c 21.57645,-7.81144 49.731149,-5.58598 71.445139,1.99482 5.27974,1.84325 10.75066,5.37266 11.94578,9.75034 2.14558,7.85916 -2.21673,17.81019 -10.47034,22.69899 -15.24667,9.03097 -39.25288,8.29807 -57.464299,3.56268 -8.93774,-2.32402 -16.31178,-8.28533 -21.08671,-14.56472 -3.0923,-4.06661 -5.33663,-9.20002 -4.0129,-13.80361 1.13962,-3.96333 4.88259,-7.91496 9.64333,-9.6385 z"
       sodipodi:nodetypes="aaaaaaaa" />
    <path
       id="path1496"
       style="opacity:1;fill:#d1b58e;stroke-width:27.8112;stroke-linecap:round;stroke-linejoin:round;fill-opacity:1"
       d="m 215.01984,198.69959 c 21.57645,-5.27963 49.73115,-3.77548 71.44514,1.34827 5.27974,1.24583 10.75066,3.6313 11.94578,6.59011 2.14558,5.3119 -2.21673,12.03765 -10.47034,15.34192 -15.24667,6.1039 -39.25288,5.60854 -57.46431,2.40796 -8.93773,-1.57077 -16.31177,-5.59993 -21.0867,-9.84408 -3.0923,-2.74856 -5.33664,-6.21816 -4.0129,-9.32966 1.13962,-2.67875 4.88259,-5.3496 9.64333,-6.51452 z"
       sodipodi:nodetypes="aaaaaaaa" />
    <path
       id="path1498"
       style="opacity:1;fill:#d1b58e;stroke-width:16.5177;stroke-linecap:round;stroke-linejoin:round;fill-opacity:1"
       d="m 225.3752,118.60778 c 7.61092,-5.27963 17.54228,-3.77548 25.20172,1.34827 1.86238,1.24583 3.79221,3.6313 4.21378,6.59011 0.75683,5.3119 -0.78194,12.03765 -3.69333,15.34192 -5.37815,6.1039 -13.84615,5.60854 -20.27009,2.40796 -3.15272,-1.57077 -5.75385,-5.59993 -7.43817,-9.84408 -1.09079,-2.74856 -1.88246,-6.21816 -1.41552,-9.32966 0.40199,-2.67875 1.72229,-5.3496 3.40161,-6.51452 z"
       sodipodi:nodetypes="aaaaaaaa" />
    <path
       id="path1500"
       style="opacity:1;fill:#d1b58e;stroke-width:13.7322;stroke-linecap:round;stroke-linejoin:round;fill-opacity:1"
       d="m 194.00945,244.80938 c 10.65372,-2.60691 24.55555,-1.86421 35.27717,0.66573 2.60696,0.61514 5.30831,1.79301 5.89842,3.25397 1.05942,2.62283 -1.09454,5.94378 -5.16989,7.57531 -7.52829,3.0139 -19.38174,2.76931 -28.37392,1.18897 -4.41314,-0.77559 -8.05419,-2.76505 -10.41189,-4.86067 -1.52687,-1.35714 -2.63505,-3.07031 -1.98143,-4.60667 0.5627,-1.32267 2.41085,-2.64145 4.76154,-3.21664 z"
       sodipodi:nodetypes="aaaaaaaa" />
    <path
       id="path1502"
       style="opacity:1;fill:#d1b58e;stroke-width:11.5746;stroke-linecap:round;stroke-linejoin:round;fill-opacity:1"
       d="m 109.93546,50.084567 c 6.83016,-2.88885 15.74271,-2.06582 22.61641,0.73773 1.67134,0.68168 3.4032,1.98693 3.78152,3.6059 0.67919,2.9065 -0.70172,6.58662 -3.31446,8.39461 -4.82643,3.33986 -12.42575,3.06881 -18.19069,1.31756 -2.8293,-0.85948 -5.1636,-3.0641 -6.67513,-5.38637 -0.97889,-1.50392 -1.68935,-3.40238 -1.27031,-5.10489 0.36075,-1.46573 1.54562,-2.92713 3.05266,-3.56454 z"
       sodipodi:nodetypes="aaaaaaaa" />
  </g>
</svg>
